<?xml version="1.0"?>
<VTKFile type="PolyData" version="0.1" byte_order="LittleEndian">
  <PolyData>
    <Piece NumberOfPoints="404" NumberOfLines="400">
      <Points>
        <DataArray type="Float64" NumberOfComponents="3" format="ascii">
          0 0 8.20164e-14
          0.01 0 0.00025615
          0.02 0 0.000512236
          0.03 0 0.000768196
          0.04 0 0.00102397
          0.05 0 0.00127948
          0.06 0 0.00153469
          0.07 0 0.00178951
          0.08 0 0.00204389
          0.09 0 0.00229777
          0.1 0 0.00255108
          0.11 0 0.00280376
          0.12 0 0.00305575
          0.13 0 0.00330699
          0.14 0 0.00355741
          0.15 0 0.00380695
          0.16 0 0.00405555
          0.17 0 0.00430315
          0.18 0 0.00454969
          0.19 0 0.00479511
          0.2 0 0.00503934
          0.21 0 0.00528233
          0.22 0 0.00552402
          0.23 0 0.00576435
          0.24 0 0.00600325
          0.25 0 0.00624067
          0.26 0 0.00647655
          0.27 0 0.00671084
          0.28 0 0.00694346
          0.29 0 0.00717438
          0.3 0 0.00740352
          0.31 0 0.00763084
          0.32 0 0.00785627
          0.33 0 0.00807977
          0.34 0 0.00830127
          0.35 0 0.00852073
          0.36 0 0.00873808
          0.37 0 0.00895328
          0.38 0 0.00916626
          0.39 0 0.00937699
          0.4 0 0.0095854
          0.41 0 0.00979145
          0.42 0 0.00999508
          0.43 0 0.0101962
          0.44 0 0.0103949
          0.45 0 0.010591
          0.46 0 0.0107844
          0.47 0 0.0109753
          0.48 0 0.0111634
          0.49 0 0.0113487
          0.5 0 0.0115313
          0.51 0 0.011711
          0.52 0 0.0118878
          0.53 0 0.0120617
          0.54 0 0.0122326
          0.55 0 0.0124004
          0.56 0 0.0125653
          0.57 0 0.012727
          0.58 0 0.0128856
          0.59 0 0.013041
          0.6 0 0.0131932
          0.61 0 0.0133421
          0.62 0 0.0134877
          0.63 0 0.0136301
          0.64 0 0.013769
          0.65 0 0.0139046
          0.66 0 0.0140367
          0.67 0 0.0141653
          0.68 0 0.0142905
          0.69 0 0.0144121
          0.7 0 0.0145302
          0.71 0 0.0146447
          0.72 0 0.0147556
          0.73 0 0.0148629
          0.74 0 0.0149664
          0.75 0 0.0150663
          0.76 0 0.0151625
          0.77 0 0.0152549
          0.78 0 0.0153436
          0.79 0 0.0154284
          0.8 0 0.0155095
          0.81 0 0.0155867
          0.82 0 0.0156601
          0.83 0 0.0157297
          0.84 0 0.0157953
          0.85 0 0.0158571
          0.86 0 0.0159149
          0.87 0 0.0159688
          0.88 0 0.0160188
          0.89 0 0.0160648
          0.9 0 0.0161069
          0.91 0 0.016145
          0.92 0 0.0161791
          0.93 0 0.0162092
          0.94 0 0.0162353
          0.95 0 0.0162574
          0.96 0 0.0162755
          0.97 0 0.0162896
          0.98 0 0.0162996
          0.99 0 0.0163056
          1 0 0.0163077
          0 0 8.20164e-14
          0 0.01 0.00173589
          0 0.02 0.00347135
          0 0.03 0.00520595
          0 0.04 0.00693927
          0 0.05 0.00867088
          0 0.06 0.0104003
          0 0.07 0.0121272
          0 0.08 0.0138512
          0 0.09 0.0155716
          0 0.1 0.0172883
          0 0.11 0.0190007
          0 0.12 0.0207084
          0 0.13 0.022411
          0 0.14 0.024108
          0 0.15 0.0257991
          0 0.16 0.0274839
          0 0.17 0.0291618
          0 0.18 0.0308326
          0 0.19 0.0324958
          0 0.2 0.0341509
          0 0.21 0.0357976
          0 0.22 0.0374355
          0 0.23 0.0390641
          0 0.24 0.0406831
          0 0.25 0.0422921
          0 0.26 0.0438906
          0 0.27 0.0454783
          0 0.28 0.0470548
          0 0.29 0.0486197
          0 0.3 0.0501726
          0 0.31 0.0517131
          0 0.32 0.0532408
          0 0.33 0.0547554
          0 0.34 0.0562565
          0 0.35 0.0577437
          0 0.36 0.0592167
          0 0.37 0.060675
          0 0.38 0.0621184
          0 0.39 0.0635465
          0 0.4 0.0649589
          0 0.41 0.0663552
          0 0.42 0.0677352
          0 0.43 0.0690984
          0 0.44 0.0704447
          0 0.45 0.0717735
          0 0.46 0.0730846
          0 0.47 0.0743777
          0 0.48 0.0756525
          0 0.49 0.0769085
          0 0.5 0.0781456
          0 0.51 0.0793634
          0 0.52 0.0805617
          0 0.53 0.08174
          0 0.54 0.0828982
          0 0.55 0.084036
          0 0.56 0.085153
          0 0.57 0.086249
          0 0.58 0.0873237
          0 0.59 0.0883768
          0 0.6 0.0894082
          0 0.61 0.0904175
          0 0.62 0.0914045
          0 0.63 0.0923689
          0 0.64 0.0933106
          0 0.65 0.0942292
          0 0.66 0.0951246
          0 0.67 0.0959965
          0 0.68 0.0968447
          0 0.69 0.097669
          0 0.7 0.0984692
          0 0.71 0.0992452
          0 0.72 0.0999966
          0 0.73 0.100723
          0 0.74 0.101425
          0 0.75 0.102102
          0 0.76 0.102754
          0 0.77 0.10338
          0 0.78 0.103981
          0 0.79 0.104556
          0 0.8 0.105106
          0 0.81 0.105629
          0 0.82 0.106126
          0 0.83 0.106598
          0 0.84 0.107043
          0 0.85 0.107461
          0 0.86 0.107853
          0 0.87 0.108218
          0 0.88 0.108557
          0 0.89 0.108869
          0 0.9 0.109154
          0 0.91 0.109412
          0 0.92 0.109643
          0 0.93 0.109847
          0 0.94 0.110024
          0 0.95 0.110174
          0 0.96 0.110297
          0 0.97 0.110392
          0 0.98 0.11046
          0 0.99 0.110501
          0 1 0.110515
          0 0 8.20164e-14
          -0.01 0 0.00259412
          -0.02 0 0.0051876
          -0.03 0 0.00777981
          -0.04 0 0.0103701
          -0.05 0 0.0129578
          -0.06 0 0.0155423
          -0.07 0 0.018123
          -0.08 0 0.0206992
          -0.09 0 0.0232704
          -0.1 0 0.0258357
          -0.11 0 0.0283947
          -0.12 0 0.0309467
          -0.13 0 0.0334911
          -0.14 0 0.0360272
          -0.15 0 0.0385544
          -0.16 0 0.0410721
          -0.17 0 0.0435796
          -0.18 0 0.0460764
          -0.19 0 0.0485619
          -0.2 0 0.0510353
          -0.21 0 0.0534962
          -0.22 0 0.0559438
          -0.23 0 0.0583777
          -0.24 0 0.0607971
          -0.25 0 0.0632016
          -0.26 0 0.0655905
          -0.27 0 0.0679631
          -0.28 0 0.070319
          -0.29 0 0.0726576
          -0.3 0 0.0749782
          -0.31 0 0.0772803
          -0.32 0 0.0795634
          -0.33 0 0.0818268
          -0.34 0 0.0840701
          -0.35 0 0.0862926
          -0.36 0 0.0884938
          -0.37 0 0.0906732
          -0.38 0 0.0928302
          -0.39 0 0.0949643
          -0.4 0 0.0970749
          -0.41 0 0.0991616
          -0.42 0 0.101224
          -0.43 0 0.103261
          -0.44 0 0.105273
          -0.45 0 0.107259
          -0.46 0 0.109218
          -0.47 0 0.111151
          -0.48 0 0.113055
          -0.49 0 0.114933
          -0.5 0 0.116781
          -0.51 0 0.118601
          -0.52 0 0.120392
          -0.53 0 0.122153
          -0.54 0 0.123884
          -0.55 0 0.125584
          -0.56 0 0.127253
          -0.57 0 0.128891
          -0.58 0 0.130497
          -0.59 0 0.132071
          -0.6 0 0.133612
          -0.61 0 0.13512
          -0.62 0 0.136595
          -0.63 0 0.138037
          -0.64 0 0.139444
          -0.65 0 0.140817
          -0.66 0 0.142155
          -0.67 0 0.143458
          -0.68 0 0.144725
          -0.69 0 0.145957
          -0.7 0 0.147153
          -0.71 0 0.148313
          -0.72 0 0.149436
          -0.73 0 0.150522
          -0.74 0 0.151571
          -0.75 0 0.152582
          -0.76 0 0.153556
          -0.77 0 0.154492
          -0.78 0 0.15539
          -0.79 0 0.15625
          -0.8 0 0.157071
          -0.81 0 0.157853
          -0.82 0 0.158596
          -0.83 0 0.1593
          -0.84 0 0.159965
          -0.85 0 0.160591
          -0.86 0 0.161176
          -0.87 0 0.161722
          -0.88 0 0.162228
          -0.89 0 0.162694
          -0.9 0 0.16312
          -0.91 0 0.163506
          -0.92 0 0.163851
          -0.93 0 0.164156
          -0.94 0 0.164421
          -0.95 0 0.164645
          -0.96 0 0.164828
          -0.97 0 0.16497
          -0.98 0 0.165072
          -0.99 0 0.165133
          -1 0 0.165154
          0 0 8.20164e-14
          0 -0.01 -0.00458616
          0 -0.02 -0.00917119
          0 -0.03 -0.013754
          0 -0.04 -0.0183333
          0 -0.05 -0.0229082
          0 -0.06 -0.0274774
          0 -0.07 -0.0320398
          0 -0.08 -0.0365943
          0 -0.09 -0.0411398
          0 -0.1 -0.0456751
          0 -0.11 -0.0501992
          0 -0.12 -0.0547108
          0 -0.13 -0.059209
          0 -0.14 -0.0636926
          0 -0.15 -0.0681604
          0 -0.16 -0.0726115
          0 -0.17 -0.0770446
          0 -0.18 -0.0814587
          0 -0.19 -0.0858527
          0 -0.2 -0.0902255
          0 -0.21 -0.0945761
          0 -0.22 -0.0989033
          0 -0.23 -0.103206
          0 -0.24 -0.107484
          0 -0.25 -0.111734
          0 -0.26 -0.115958
          0 -0.27 -0.120152
          0 -0.28 -0.124317
          0 -0.29 -0.128452
          0 -0.3 -0.132554
          0 -0.31 -0.136624
          0 -0.32 -0.140661
          0 -0.33 -0.144662
          0 -0.34 -0.148628
          0 -0.35 -0.152557
          0 -0.36 -0.156449
          0 -0.37 -0.160301
          0 -0.38 -0.164115
          0 -0.39 -0.167888
          0 -0.4 -0.171619
          0 -0.41 -0.175308
          0 -0.42 -0.178954
          0 -0.43 -0.182556
          0 -0.44 -0.186112
          0 -0.45 -0.189623
          0 -0.46 -0.193087
          0 -0.47 -0.196503
          0 -0.48 -0.199871
          0 -0.49 -0.20319
          0 -0.5 -0.206458
          0 -0.51 -0.209676
          0 -0.52 -0.212841
          0 -0.53 -0.215955
          0 -0.54 -0.219014
          0 -0.55 -0.22202
          0 -0.56 -0.224971
          0 -0.57 -0.227867
          0 -0.58 -0.230706
          0 -0.59 -0.233489
          0 -0.6 -0.236214
          0 -0.61 -0.23888
          0 -0.62 -0.241488
          0 -0.63 -0.244036
          0 -0.64 -0.246523
          0 -0.65 -0.24895
          0 -0.66 -0.251316
          0 -0.67 -0.25362
          0 -0.68 -0.255861
          0 -0.69 -0.258038
          0 -0.7 -0.260153
          0 -0.71 -0.262202
          0 -0.72 -0.264188
          0 -0.73 -0.266108
          0 -0.74 -0.267962
          0 -0.75 -0.269751
          0 -0.76 -0.271472
          0 -0.77 -0.273127
          0 -0.78 -0.274715
          0 -0.79 -0.276234
          0 -0.8 -0.277686
          0 -0.81 -0.279069
          0 -0.82 -0.280383
          0 -0.83 -0.281628
          0 -0.84 -0.282803
          0 -0.85 -0.283909
          0 -0.86 -0.284944
          0 -0.87 -0.28591
          0 -0.88 -0.286804
          0 -0.89 -0.287628
          0 -0.9 -0.288381
          0 -0.91 -0.289063
          0 -0.92 -0.289674
          0 -0.93 -0.290213
          0 -0.94 -0.29068
          0 -0.95 -0.291076
          0 -0.96 -0.2914
          0 -0.97 -0.291652
          0 -0.98 -0.291832
          0 -0.99 -0.29194
          0 -1 -0.291976
        </DataArray>
      </Points>
      <Lines>
        <DataArray type="Int64" Name="connectivity" format="ascii">
          0 1
          1 2
          2 3
          3 4
          4 5
          5 6
          6 7
          7 8
          8 9
          9 10
          10 11
          11 12
          12 13
          13 14
          14 15
          15 16
          16 17
          17 18
          18 19
          19 20
          20 21
          21 22
          22 23
          23 24
          24 25
          25 26
          26 27
          27 28
          28 29
          29 30
          30 31
          31 32
          32 33
          33 34
          34 35
          35 36
          36 37
          37 38
          38 39
          39 40
          40 41
          41 42
          42 43
          43 44
          44 45
          45 46
          46 47
          47 48
          48 49
          49 50
          50 51
          51 52
          52 53
          53 54
          54 55
          55 56
          56 57
          57 58
          58 59
          59 60
          60 61
          61 62
          62 63
          63 64
          64 65
          65 66
          66 67
          67 68
          68 69
          69 70
          70 71
          71 72
          72 73
          73 74
          74 75
          75 76
          76 77
          77 78
          78 79
          79 80
          80 81
          81 82
          82 83
          83 84
          84 85
          85 86
          86 87
          87 88
          88 89
          89 90
          90 91
          91 92
          92 93
          93 94
          94 95
          95 96
          96 97
          97 98
          98 99
          99 100
          101 102
          102 103
          103 104
          104 105
          105 106
          106 107
          107 108
          108 109
          109 110
          110 111
          111 112
          112 113
          113 114
          114 115
          115 116
          116 117
          117 118
          118 119
          119 120
          120 121
          121 122
          122 123
          123 124
          124 125
          125 126
          126 127
          127 128
          128 129
          129 130
          130 131
          131 132
          132 133
          133 134
          134 135
          135 136
          136 137
          137 138
          138 139
          139 140
          140 141
          141 142
          142 143
          143 144
          144 145
          145 146
          146 147
          147 148
          148 149
          149 150
          150 151
          151 152
          152 153
          153 154
          154 155
          155 156
          156 157
          157 158
          158 159
          159 160
          160 161
          161 162
          162 163
          163 164
          164 165
          165 166
          166 167
          167 168
          168 169
          169 170
          170 171
          171 172
          172 173
          173 174
          174 175
          175 176
          176 177
          177 178
          178 179
          179 180
          180 181
          181 182
          182 183
          183 184
          184 185
          185 186
          186 187
          187 188
          188 189
          189 190
          190 191
          191 192
          192 193
          193 194
          194 195
          195 196
          196 197
          197 198
          198 199
          199 200
          200 201
          202 203
          203 204
          204 205
          205 206
          206 207
          207 208
          208 209
          209 210
          210 211
          211 212
          212 213
          213 214
          214 215
          215 216
          216 217
          217 218
          218 219
          219 220
          220 221
          221 222
          222 223
          223 224
          224 225
          225 226
          226 227
          227 228
          228 229
          229 230
          230 231
          231 232
          232 233
          233 234
          234 235
          235 236
          236 237
          237 238
          238 239
          239 240
          240 241
          241 242
          242 243
          243 244
          244 245
          245 246
          246 247
          247 248
          248 249
          249 250
          250 251
          251 252
          252 253
          253 254
          254 255
          255 256
          256 257
          257 258
          258 259
          259 260
          260 261
          261 262
          262 263
          263 264
          264 265
          265 266
          266 267
          267 268
          268 269
          269 270
          270 271
          271 272
          272 273
          273 274
          274 275
          275 276
          276 277
          277 278
          278 279
          279 280
          280 281
          281 282
          282 283
          283 284
          284 285
          285 286
          286 287
          287 288
          288 289
          289 290
          290 291
          291 292
          292 293
          293 294
          294 295
          295 296
          296 297
          297 298
          298 299
          299 300
          300 301
          301 302
          303 304
          304 305
          305 306
          306 307
          307 308
          308 309
          309 310
          310 311
          311 312
          312 313
          313 314
          314 315
          315 316
          316 317
          317 318
          318 319
          319 320
          320 321
          321 322
          322 323
          323 324
          324 325
          325 326
          326 327
          327 328
          328 329
          329 330
          330 331
          331 332
          332 333
          333 334
          334 335
          335 336
          336 337
          337 338
          338 339
          339 340
          340 341
          341 342
          342 343
          343 344
          344 345
          345 346
          346 347
          347 348
          348 349
          349 350
          350 351
          351 352
          352 353
          353 354
          354 355
          355 356
          356 357
          357 358
          358 359
          359 360
          360 361
          361 362
          362 363
          363 364
          364 365
          365 366
          366 367
          367 368
          368 369
          369 370
          370 371
          371 372
          372 373
          373 374
          374 375
          375 376
          376 377
          377 378
          378 379
          379 380
          380 381
          381 382
          382 383
          383 384
          384 385
          385 386
          386 387
          387 388
          388 389
          389 390
          390 391
          391 392
          392 393
          393 394
          394 395
          395 396
          396 397
          397 398
          398 399
          399 400
          400 401
          401 402
          402 403
        </DataArray>
        <DataArray type="Int64" Name="offsets" format="ascii">
          2
          4
          6
          8
          10
          12
          14
          16
          18
          20
          22
          24
          26
          28
          30
          32
          34
          36
          38
          40
          42
          44
          46
          48
          50
          52
          54
          56
          58
          60
          62
          64
          66
          68
          70
          72
          74
          76
          78
          80
          82
          84
          86
          88
          90
          92
          94
          96
          98
          100
          102
          104
          106
          108
          110
          112
          114
          116
          118
          120
          122
          124
          126
          128
          130
          132
          134
          136
          138
          140
          142
          144
          146
          148
          150
          152
          154
          156
          158
          160
          162
          164
          166
          168
          170
          172
          174
          176
          178
          180
          182
          184
          186
          188
          190
          192
          194
          196
          198
          200
          202
          204
          206
          208
          210
          212
          214
          216
          218
          220
          222
          224
          226
          228
          230
          232
          234
          236
          238
          240
          242
          244
          246
          248
          250
          252
          254
          256
          258
          260
          262
          264
          266
          268
          270
          272
          274
          276
          278
          280
          282
          284
          286
          288
          290
          292
          294
          296
          298
          300
          302
          304
          306
          308
          310
          312
          314
          316
          318
          320
          322
          324
          326
          328
          330
          332
          334
          336
          338
          340
          342
          344
          346
          348
          350
          352
          354
          356
          358
          360
          362
          364
          366
          368
          370
          372
          374
          376
          378
          380
          382
          384
          386
          388
          390
          392
          394
          396
          398
          400
          402
          404
          406
          408
          410
          412
          414
          416
          418
          420
          422
          424
          426
          428
          430
          432
          434
          436
          438
          440
          442
          444
          446
          448
          450
          452
          454
          456
          458
          460
          462
          464
          466
          468
          470
          472
          474
          476
          478
          480
          482
          484
          486
          488
          490
          492
          494
          496
          498
          500
          502
          504
          506
          508
          510
          512
          514
          516
          518
          520
          522
          524
          526
          528
          530
          532
          534
          536
          538
          540
          542
          544
          546
          548
          550
          552
          554
          556
          558
          560
          562
          564
          566
          568
          570
          572
          574
          576
          578
          580
          582
          584
          586
          588
          590
          592
          594
          596
          598
          600
          602
          604
          606
          608
          610
          612
          614
          616
          618
          620
          622
          624
          626
          628
          630
          632
          634
          636
          638
          640
          642
          644
          646
          648
          650
          652
          654
          656
          658
          660
          662
          664
          666
          668
          670
          672
          674
          676
          678
          680
          682
          684
          686
          688
          690
          692
          694
          696
          698
          700
          702
          704
          706
          708
          710
          712
          714
          716
          718
          720
          722
          724
          726
          728
          730
          732
          734
          736
          738
          740
          742
          744
          746
          748
          750
          752
          754
          756
          758
          760
          762
          764
          766
          768
          770
          772
          774
          776
          778
          780
          782
          784
          786
          788
          790
          792
          794
          796
          798
          800
        </DataArray>
      </Lines>
      <PointData Scalars="phi">
        <DataArray type="Float64" Name="phi" NumberOfComponents="1" format="ascii">
          3.28066e-13
          0.0010246
          0.00204894
          0.00307278
          0.00409587
          0.00511794
          0.00613875
          0.00715804
          0.00817557
          0.00919108
          0.0102043
          0.011215
          0.012223
          0.0132279
          0.0142296
          0.0152278
          0.0162222
          0.0172126
          0.0181988
          0.0191804
          0.0201574
          0.0211293
          0.0220961
          0.0230574
          0.024013
          0.0249627
          0.0259062
          0.0268433
          0.0277739
          0.0286975
          0.0296141
          0.0305234
          0.0314251
          0.0323191
          0.0332051
          0.0340829
          0.0349523
          0.0358131
          0.0366651
          0.037508
          0.0383416
          0.0391658
          0.0399803
          0.040785
          0.0415796
          0.0423639
          0.0431378
          0.043901
          0.0446534
          0.0453948
          0.046125
          0.0468438
          0.0475511
          0.0482466
          0.0489302
          0.0496018
          0.0502611
          0.050908
          0.0515423
          0.0521639
          0.0527727
          0.0533684
          0.053951
          0.0545202
          0.055076
          0.0556183
          0.0561468
          0.0566614
          0.057162
          0.0576486
          0.0581209
          0.0585789
          0.0590224
          0.0594514
          0.0598657
          0.0602653
          0.0606499
          0.0610196
          0.0613743
          0.0617138
          0.062038
          0.062347
          0.0626406
          0.0629187
          0.0631813
          0.0634283
          0.0636597
          0.0638753
          0.0640752
          0.0642593
          0.0644275
          0.0645799
          0.0647163
          0.0648367
          0.0649411
          0.0650296
          0.0651019
          0.0651582
          0.0651984
          0.0652226
          0.0652306
          3.28066e-13
          0.00694355
          0.0138854
          0.0208238
          0.0277571
          0.0346835
          0.0416014
          0.048509
          0.0554046
          0.0622866
          0.0691532
          0.0760027
          0.0828335
          0.0896438
          0.0964321
          0.103196
          0.109935
          0.116647
          0.12333
          0.129983
          0.136604
          0.14319
          0.149742
          0.156257
          0.162733
          0.169168
          0.175563
          0.181913
          0.188219
          0.194479
          0.20069
          0.206852
          0.212963
          0.219022
          0.225026
          0.230975
          0.236867
          0.2427
          0.248474
          0.254186
          0.259835
          0.265421
          0.270941
          0.276394
          0.281779
          0.287094
          0.292338
          0.297511
          0.30261
          0.307634
          0.312583
          0.317454
          0.322247
          0.32696
          0.331593
          0.336144
          0.340612
          0.344996
          0.349295
          0.353507
          0.357633
          0.36167
          0.365618
          0.369476
          0.373242
          0.376917
          0.380498
          0.383986
          0.387379
          0.390676
          0.393877
          0.396981
          0.399986
          0.402893
          0.405701
          0.408409
          0.411016
          0.413521
          0.415924
          0.418225
          0.420423
          0.422516
          0.424506
          0.426391
          0.42817
          0.429844
          0.431412
          0.432874
          0.434228
          0.435476
          0.436616
          0.437648
          0.438573
          0.439389
          0.440097
          0.440696
          0.441186
          0.441568
          0.44184
          0.442004
          0.442058
          3.28066e-13
          0.0103765
          0.0207504
          0.0311192
          0.0414804
          0.0518312
          0.0621694
          0.0724921
          0.082797
          0.0930814
          0.103343
          0.113579
          0.123787
          0.133964
          0.144109
          0.154217
          0.164288
          0.174318
          0.184306
          0.194247
          0.204141
          0.213985
          0.223775
          0.233511
          0.243189
          0.252806
          0.262362
          0.271853
          0.281276
          0.29063
          0.299913
          0.309121
          0.318254
          0.327307
          0.33628
          0.34517
          0.353975
          0.362693
          0.371321
          0.379857
          0.3883
          0.396647
          0.404896
          0.413045
          0.421092
          0.429035
          0.436872
          0.444602
          0.452222
          0.45973
          0.467125
          0.474405
          0.481568
          0.488611
          0.495535
          0.502335
          0.509013
          0.515564
          0.521988
          0.528284
          0.534449
          0.540482
          0.546382
          0.552147
          0.557776
          0.563267
          0.568619
          0.573831
          0.578901
          0.583829
          0.588612
          0.59325
          0.597742
          0.602087
          0.606282
          0.610329
          0.614224
          0.617968
          0.62156
          0.624998
          0.628282
          0.631411
          0.634384
          0.637201
          0.63986
          0.642362
          0.644705
          0.646889
          0.648914
          0.650778
          0.652482
          0.654024
          0.655406
          0.656625
          0.657683
          0.658578
          0.659311
          0.659882
          0.660289
          0.660533
          0.660615
          3.28066e-13
          -0.0183446
          -0.0366847
          -0.0550158
          -0.0733333
          -0.0916327
          -0.109909
          -0.128159
          -0.146377
          -0.164559
          -0.1827
          -0.200797
          -0.218843
          -0.236836
          -0.25477
          -0.272642
          -0.290446
          -0.308178
          -0.325835
          -0.343411
          -0.360902
          -0.378304
          -0.395613
          -0.412825
          -0.429934
          -0.446937
          -0.463831
          -0.480609
          -0.497269
          -0.513807
          -0.530217
          -0.546497
          -0.562642
          -0.578648
          -0.594511
          -0.610228
          -0.625794
          -0.641206
          -0.656459
          -0.671551
          -0.686477
          -0.701233
          -0.715817
          -0.730223
          -0.74445
          -0.758493
          -0.772349
          -0.786014
          -0.799485
          -0.812759
          -0.825833
          -0.838703
          -0.851365
          -0.863818
          -0.876058
          -0.888081
          -0.899885
          -0.911468
          -0.922825
          -0.933955
          -0.944854
          -0.95552
          -0.965951
          -0.976143
          -0.986094
          -0.995802
          -1.00526
          -1.01448
          -1.02344
          -1.03215
          -1.04061
          -1.04881
          -1.05675
          -1.06443
          -1.07185
          -1.079
          -1.08589
          -1.09251
          -1.09886
          -1.10494
          -1.11074
          -1.11627
          -1.12153
          -1.12651
          -1.13121
          -1.13563
          -1.13978
          -1.14364
          -1.14722
          -1.15051
          -1.15353
          -1.15625
          -1.15869
          -1.16085
          -1.16272
          -1.1643
          -1.1656
          -1.16661
          -1.16733
          -1.16776
          -1.1679
        </DataArray>
        <DataArray type="Float64" Name="lambda" NumberOfComponents="1" format="ascii">
          2.46745
          2.46745
          2.46745
          2.46745
          2.46745
          2.46745
          2.46745
          2.46745
          2.46745
          2.46745
          2.46745
          2.46745
          2.46745
          2.46745
          2.46745
          2.46745
          2.46745
          2.46745
          2.46745
          2.46745
          2.46745
          2.46745
          2.46745
          2.46745
          2.46745
          2.46745
          2.46745
          2.46745
          2.46745
          2.46745
          2.46745
          2.46745
          2.46745
          2.46745
          2.46745
          2.46745
          2.46745
          2.46745
          2.46745
          2.46745
          2.46745
          2.46745
          2.46745
          2.46745
          2.46745
          2.46745
          2.46745
          2.46745
          2.46745
          2.46745
          2.46745
          2.46745
          2.46745
          2.46745
          2.46745
          2.46745
          2.46745
          2.46745
          2.46745
          2.46745
          2.46745
          2.46745
          2.46745
          2.46745
          2.46745
          2.46745
          2.46745
          2.46745
          2.46745
          2.46745
          2.46745
          2.46745
          2.46745
          2.46745
          2.46745
          2.46745
          2.46745
          2.46745
          2.46745
          2.46745
          2.46745
          2.46745
          2.46745
          2.46745
          2.46745
          2.46745
          2.46745
          2.46745
          2.46745
          2.46745
          2.46745
          2.46745
          2.46745
          2.46745
          2.46745
          2.46745
          2.46745
          2.46745
          2.46745
          2.46745
          2.46745
          2.46745
          2.46745
          2.46745
          2.46745
          2.46745
          2.46745
          2.46745
          2.46745
          2.46745
          2.46745
          2.46745
          2.46745
          2.46745
          2.46745
          2.46745
          2.46745
          2.46745
          2.46745
          2.46745
          2.46745
          2.46745
          2.46745
          2.46745
          2.46745
          2.46745
          2.46745
          2.46745
          2.46745
          2.46745
          2.46745
          2.46745
          2.46745
          2.46745
          2.46745
          2.46745
          2.46745
          2.46745
          2.46745
          2.46745
          2.46745
          2.46745
          2.46745
          2.46745
          2.46745
          2.46745
          2.46745
          2.46745
          2.46745
          2.46745
          2.46745
          2.46745
          2.46745
          2.46745
          2.46745
          2.46745
          2.46745
          2.46745
          2.46745
          2.46745
          2.46745
          2.46745
          2.46745
          2.46745
          2.46745
          2.46745
          2.46745
          2.46745
          2.46745
          2.46745
          2.46745
          2.46745
          2.46745
          2.46745
          2.46745
          2.46745
          2.46745
          2.46745
          2.46745
          2.46745
          2.46745
          2.46745
          2.46745
          2.46745
          2.46745
          2.46745
          2.46745
          2.46745
          2.46745
          2.46745
          2.46745
          2.46745
          2.46745
          2.46745
          2.46745
          2.46745
          2.46745
          2.46745
          2.46745
          2.46745
          2.46745
          2.46745
          2.46745
          2.46745
          2.46745
          2.46745
          2.46745
          2.46745
          2.46745
          2.46745
          2.46745
          2.46745
          2.46745
          2.46745
          2.46745
          2.46745
          2.46745
          2.46745
          2.46745
          2.46745
          2.46745
          2.46745
          2.46745
          2.46745
          2.46745
          2.46745
          2.46745
          2.46745
          2.46745
          2.46745
          2.46745
          2.46745
          2.46745
          2.46745
          2.46745
          2.46745
          2.46745
          2.46745
          2.46745
          2.46745
          2.46745
          2.46745
          2.46745
          2.46745
          2.46745
          2.46745
          2.46745
          2.46745
          2.46745
          2.46745
          2.46745
          2.46745
          2.46745
          2.46745
          2.46745
          2.46745
          2.46745
          2.46745
          2.46745
          2.46745
          2.46745
          2.46745
          2.46745
          2.46745
          2.46745
          2.46745
          2.46745
          2.46745
          2.46745
          2.46745
          2.46745
          2.46745
          2.46745
          2.46745
          2.46745
          2.46745
          2.46745
          2.46745
          2.46745
          2.46745
          2.46745
          2.46745
          2.46745
          2.46745
          2.46745
          2.46745
          2.46745
          2.46745
          2.46745
          2.46745
          2.46745
          2.46745
          2.46745
          2.46745
          2.46745
          2.46745
          2.46745
          2.46745
          2.46745
          2.46745
          2.46745
          2.46745
          2.46745
          2.46745
          2.46745
          2.46745
          2.46745
          2.46745
          2.46745
          2.46745
          2.46745
          2.46745
          2.46745
          2.46745
          2.46745
          2.46745
          2.46745
          2.46745
          2.46745
          2.46745
          2.46745
          2.46745
          2.46745
          2.46745
          2.46745
          2.46745
          2.46745
          2.46745
          2.46745
          2.46745
          2.46745
          2.46745
          2.46745
          2.46745
          2.46745
          2.46745
          2.46745
          2.46745
          2.46745
          2.46745
          2.46745
          2.46745
          2.46745
          2.46745
          2.46745
          2.46745
          2.46745
          2.46745
          2.46745
          2.46745
          2.46745
          2.46745
          2.46745
          2.46745
          2.46745
          2.46745
          2.46745
          2.46745
          2.46745
          2.46745
          2.46745
          2.46745
          2.46745
          2.46745
          2.46745
          2.46745
          2.46745
          2.46745
          2.46745
          2.46745
          2.46745
          2.46745
          2.46745
          2.46745
          2.46745
          2.46745
          2.46745
          2.46745
          2.46745
          2.46745
          2.46745
          2.46745
          2.46745
          2.46745
          2.46745
          2.46745
          2.46745
          2.46745
          2.46745
          2.46745
          2.46745
          2.46745
          2.46745
          2.46745
          2.46745
          2.46745
          2.46745
          2.46745
          2.46745
          2.46745
          2.46745
          2.46745
          2.46745
          2.46745
        </DataArray>
      </PointData>
    </Piece>
  </PolyData>
</VTKFile>
